<svg xmlns="http://www.w3.org/2000/svg" xml:space="preserve" width="48" height="48"><g fill="#f7a41d"><path d="m18.715 14.438 3.858-1.143L20 16.44z"/><path d="M19.144 16.439v7.287h1.286l-1.572.714-1.143 2.43H16V13.294h6.573l-1.858 1.572-.714 1.572z" shape-rendering="crispEdges"/><path d="m16.572 25.297 3.858-1.571-2.715 3.143zm12.824-9.43-2.572.714 2.715-3.286z"/><path d="m28.253 15.295 1.286-2h1.715V26.87h-6.716l2-1.714.715-1.43h.857v-7.144h-1.286z" shape-rendering="crispEdges"/><path d="m27.968 25.869-3.43 1 2.715-3.143zM24.16 13.263s.622-3.74 3.738-5.308c1.318-.663 2.718-1.868 2.718-1.868s-.027 1.837-1.356 3.688c-1.355 1.885-5.1 3.488-5.1 3.488z"/><path d="M16.922 43.939q-.241 0-.389-.134-.134-.148-.134-.389V37.13q0-.242.134-.376.148-.147.389-.147.228 0 .362.147.147.134.147.376v6.287q0 .241-.147.389-.134.134-.362.134zm-.014-8.727q-.294 0-.509-.215-.214-.214-.214-.523 0-.335.214-.522.228-.202.523-.202.281 0 .496.202.228.187.228.522 0 .309-.215.523-.214.215-.523.215zm6.02 8.727q-.71 0-1.274-.335-.55-.335-.871-.912-.322-.59-.322-1.34v-3.58h-.871q-.201 0-.335-.12-.135-.134-.135-.322 0-.201.135-.322.134-.134.335-.134h.871v-2.078q0-.228.134-.375.148-.148.375-.148.228 0 .376.148.147.147.147.375v2.078h1.515q.201 0 .335.134.134.12.134.322 0 .188-.134.322-.134.12-.335.12h-1.515v3.58q0 .683.402 1.126.403.429 1.033.429h.362q.214 0 .348.147.134.148.134.376 0 .227-.16.375-.161.134-.403.134zm3.03 0q-.51 0-.51-.51v-6.314q0-.51.51-.51.509 0 .509.51v.577q.402-.536.992-.845.59-.322 1.3-.322.617 0 .952.175.335.174.255.51-.067.308-.322.32-.241 0-.576-.026-.751-.067-1.34.161-.577.214-.926.67-.335.456-.335 1.086v4.009q0 .509-.51.509zm8.82.08q-.951 0-1.702-.388-.75-.403-1.193-1.167-.429-.764-.429-1.863v-3.486q0-.214.147-.362.148-.147.362-.147.228 0 .376.147.147.148.147.362v3.486q0 1.233.684 1.837.684.603 1.716.603.657 0 1.18-.255.536-.255.844-.697.309-.442.309-1.005v-3.969q0-.228.134-.362.147-.147.375-.147t.375.147q.148.134.148.362v6.301q0 .241-.148.389-.147.134-.375.134t-.375-.134q-.134-.148-.134-.389v-.456q-.443.496-1.073.778-.63.281-1.367.281zm8.446-.013q-.79 0-1.568-.268t-1.26-.804q-.148-.161-.12-.362.026-.202.2-.349.188-.134.389-.107.201.027.335.174.322.375.845.577.536.2 1.18.2.991 0 1.434-.335.442-.348.456-.83 0-.483-.456-.792-.456-.321-1.502-.496-1.354-.214-1.984-.75-.63-.537-.63-1.274 0-.684.362-1.14.362-.455.965-.683.604-.228 1.328-.228.898 0 1.541.308.657.309 1.06.831.133.175.107.362-.027.188-.215.309-.16.094-.375.067-.201-.04-.349-.201-.657-.751-1.796-.751-.738 0-1.18.308-.442.295-.442.751t.388.75q.403.296 1.502.483 1.005.161 1.582.483.59.308.831.737.255.416.255.912 0 .63-.376 1.113-.362.469-1.018.737-.644.268-1.489.268z" aria-label="itrus" style="font-size:13.406px;font-family:Comfortaa;-inkscape-font-specification:Comfortaa;stroke-width:1.117"/><path d="m4.848 35.258 2.237-2.59.707 1.648z" style="fill:#f7a41d;fill-opacity:1"/><path d="M7.085 33.845v-1.178h6.477v2.591H4.848z" shape-rendering="crispEdges"/><path d="m11.09 42.324 3.061-1.06-2.237 2.59z"/><path d="M5.437 41.264h8.714l-1.884 1.06-.353 1.53H5.437z" shape-rendering="crispEdges"/><path d="m.844 46.564 11.54-13.897 5.771-2.59-11.54 13.778z"/></g></svg>