<svg xmlns="http://www.w3.org/2000/svg" viewBox="0 0 1200 630"><g fill="#f7a31c"><path d="m78.998 250.651 42.337-12.543L93.1 272.621Z"/><path d="M83.706 272.61v79.967h14.112l-17.25 7.835-12.544 26.666h-18.82v-148.98h72.131l-20.389 17.25-7.835 17.251z" shape-rendering="crispEdges"/><path d="m55.481 369.817 42.337-17.24-29.794 34.49zm140.73-103.484-28.226 7.835 29.794-36.06z"/><path d="m183.667 260.056 14.112-21.948h18.82v148.97h-73.7l21.948-18.809 7.846-15.692h9.405v-78.398h-14.113Z" shape-rendering="crispEdges"/><path d="m180.54 376.094-37.64 10.973 29.793-34.49zm-41.79-138.337s6.826-41.042 41.02-58.25c14.464-7.275 29.827-20.499 29.827-20.499s-.296 20.16-14.88 40.472c-14.87 20.686-55.967 38.277-55.967 38.277z"/><path d="M535.328 429.778q-5.215 0-8.402-2.897-2.898-3.187-2.898-8.402V282.597q0-5.215 2.898-8.113 3.187-3.187 8.402-3.187 4.925 0 7.822 3.187 3.187 2.898 3.187 8.113v135.882q0 5.215-3.187 8.402-2.897 2.897-7.822 2.897zm-.29-188.612q-6.374 0-11.01-4.636-4.635-4.636-4.635-11.3 0-7.243 4.635-11.299 4.926-4.346 11.3-4.346 6.084 0 10.72 4.346 4.925 4.056 4.925 11.3 0 6.663-4.636 11.3-4.635 4.635-11.299 4.635zm130.088 188.612q-15.356 0-27.524-7.243-11.88-7.243-18.833-19.701-6.953-12.748-6.953-28.973v-77.357h-18.833q-4.345 0-7.243-2.608-2.897-2.897-2.897-6.953 0-4.346 2.897-6.954 2.898-2.897 7.243-2.897h18.833v-44.908q0-4.925 2.897-8.112 3.187-3.187 8.112-3.187 4.926 0 8.113 3.187 3.187 3.187 3.187 8.112v44.908h32.739q4.346 0 7.243 2.897 2.897 2.608 2.897 6.954 0 4.056-2.897 6.953-2.897 2.608-7.243 2.608h-32.74v77.357q0 14.776 8.693 24.337 8.692 9.271 22.309 9.271h7.822q4.636 0 7.533 3.187 2.898 3.187 2.898 8.113 0 4.925-3.477 8.112-3.477 2.897-8.692 2.897zm65.478 0q-11.01 0-11.01-11.01v-136.46q0-11.01 11.01-11.01t11.01 11.009v12.458q8.692-11.589 21.44-18.253 12.748-6.953 28.103-6.953 13.328 0 20.57 3.766 7.244 3.767 5.506 11.01-1.448 6.664-6.954 6.953-5.215 0-12.458-.579-16.225-1.448-28.973 3.477-12.458 4.636-19.99 14.486-7.244 9.851-7.244 23.468v86.629q0 11.01-11.01 11.01zm190.64 1.738q-20.57 0-36.794-8.402-16.225-8.692-25.786-25.207-9.272-16.514-9.272-40.272v-75.329q0-4.636 3.188-7.822 3.186-3.188 7.822-3.188 4.925 0 8.113 3.188 3.186 3.186 3.186 7.822v75.33q0 26.654 14.777 39.692 14.776 13.038 37.085 13.038 14.196 0 25.496-5.505 11.589-5.505 18.252-15.066 6.664-9.56 6.664-21.73v-85.759q0-4.925 2.898-7.822 3.187-3.188 8.112-3.188 4.925 0 8.112 3.188 3.187 2.897 3.187 7.822v136.172q0 5.215-3.187 8.402-3.187 2.897-8.112 2.897-4.925 0-8.112-2.897-2.898-3.187-2.898-8.402v-9.85q-9.56 10.72-23.178 16.803-13.617 6.085-29.552 6.085zm182.53-.29q-17.094 0-33.899-5.794-16.804-5.795-27.234-17.384-3.187-3.477-2.608-7.823.58-4.345 4.346-7.533 4.056-2.897 8.402-2.317 4.346.579 7.243 3.766 6.954 8.112 18.253 12.458 11.59 4.346 25.496 4.346 21.44 0 31.001-7.243 9.561-7.533 9.85-17.963 0-10.43-9.85-17.094-9.85-6.953-32.45-10.72-29.262-4.636-42.88-16.225-13.616-11.589-13.616-27.524 0-14.776 7.822-24.626 7.823-9.851 20.86-14.777 13.039-4.925 28.684-4.925 19.412 0 33.319 6.664 14.196 6.663 22.888 17.963 2.897 3.766 2.318 7.823-.58 4.056-4.636 6.663-3.477 2.027-8.112 1.448-4.346-.869-7.533-4.346-14.197-16.224-38.824-16.224-15.934 0-25.496 6.663-9.56 6.374-9.56 16.225 0 9.85 8.401 16.225 8.692 6.374 32.45 10.43 21.73 3.477 34.188 10.43 12.748 6.664 17.963 15.935 5.505 8.982 5.505 19.702 0 13.617-8.113 24.047-7.822 10.14-22.019 15.935-13.907 5.795-32.16 5.795z" aria-label="itrus" font-family="Comfortaa" font-size="13.406" style="-inkscape-font-specification:Comfortaa"/><path d="m274.39 242.166 48.345-55.974 15.28 35.616z"/><path d="M322.736 211.629V186.17h139.979v55.996H274.39Z" shape-rendering="crispEdges"/><path d="m409.29 394.875 66.154-22.908L427.1 427.94z"/><path d="M287.12 371.967h188.324l-40.716 22.908-7.63 33.066H287.12Z" shape-rendering="crispEdges"/><path d="m187.856 486.51 249.4-300.34 124.722-55.974-249.4 297.767z"/></g></svg>