<svg xmlns="http://www.w3.org/2000/svg" xml:space="preserve" width="48" height="48"><g fill="#f7a41d"><path d="m18.715 14.438 3.858-1.143L20 16.44z"/><path d="M19.144 16.439v7.287h1.286l-1.572.714-1.143 2.43H16V13.294h6.573l-1.858 1.572-.714 1.572z" shape-rendering="crispEdges"/><path d="m16.572 25.297 3.858-1.571-2.715 3.143zm12.824-9.43-2.572.714 2.715-3.286z"/><path d="m28.253 15.295 1.286-2h1.715V26.87h-6.716l2-1.714.715-1.43h.857v-7.144h-1.286z" shape-rendering="crispEdges"/><path d="m27.968 25.869-3.43 1 2.715-3.143zM24.16 13.263s.622-3.74 3.738-5.308c1.318-.663 2.718-1.868 2.718-1.868s-.027 1.837-1.356 3.688c-1.355 1.885-5.1 3.488-5.1 3.488z"/><text xml:space="preserve" x="14.978" y="43.939" stroke-width="1.117" font-family="Comfortaa" font-size="13.406" style="-inkscape-font-specification:Comfortaa;text-align:start"><tspan x="14.978" y="43.939">itrus</tspan></text><path d="m4.848 35.258 2.237-2.59.707 1.648z"/><path d="M7.085 33.845v-1.178h6.477v2.591H4.848z" shape-rendering="crispEdges"/><path d="m11.09 42.324 3.061-1.06-2.237 2.59z"/><path d="M5.437 41.264h8.714l-1.884 1.06-.353 1.53H5.437z" shape-rendering="crispEdges"/><path d="m.844 46.564 11.54-13.897 5.771-2.59-11.54 13.778z"/></g></svg>